# xmcd
#
# Track frame offsets:
#	150
#	21290
#	38420
#	54429
#	67778
#	87365
#	105555
#	125592
#	142446
#	159919
#
# Disc length: 2418 seconds
#
# Revision: 11
# Processed by: cddbd v1.5.2PL0 Copyright (c) Steve Scherf et al.
# Submitted via: Jack! The Knife 20 Magnifico
#
DISCID=7e09700a
DTITLE=Sodom - Epitome Of Torture
DYEAR=2013
DGENRE=Trash Metal
TTITLE0=My Final Bullet
TTITLE1=S.O.D.O.M.
TTITLE2=Epitome Of Torture
TTITLE3=Stigmatized
TTITLE4=Cannibal
TTITLE5=Shoot Today Kill Tomorrow
TTITLE6=Invocating The Demons
TTITLE7=Katjuscha
TTITLE8=Into The Skies Of War
TTITLE9=Tracing The Victim
EXTD=Tom Angelripper
EXTT0=Tom Angelripper
EXTT1=Tom Angelripper
EXTT2=Tom Angelripper
EXTT3=Tom Angelripper
EXTT4=Tom Angelripper
EXTT5=Tom Angelripper
EXTT6=Tom Angelripper
EXTT7=Tom Angelripper
EXTT8=Tom Angelripper
EXTT9=Angelripper, Herten
PLAYORDER=
